<svg role="img" viewBox="0 0 24 24" xmlns="http://www.w3.org/2000/svg" fill="#4DABCF"><title>NumPy</title><path d="M10.315 4.876L6.3048 2.8517l-4.506 2.0788 4.0467 2.0384zm3.1498 1.5765l-4.5468-2.3085L4.545 6.2585l4.5765 2.3047zm6.7498-.3142l-3.7913-1.7186-4.2385 1.9527 4.5208 2.2967zM24 6.41l-3.4975-1.5854-4.5124 2.0807 3.5096 1.7845v3.507l-4.6498 2.1617V8.7128L10.335 6.458v13.6262l4.5142 2.268V15.78l4.6498-2.1607v6.6065L24 18.0438zM9.6648 20.2616l-4.5308-2.2757V9.2925l4.5308 2.211zm-.654-11.559L4.445 6.4697.0067 8.523l4.547 2.2878zM0 9.1952v8.8513l4.4632 2.2416V11.435z"/></svg>
