<svg role="img" viewBox="0 0 24 24" xmlns="http://www.w3.org/2000/svg" fill="#8CAAE6"><title>SciPy</title><path d="M19.079 1.207C10.446-.697 4.192 2.24 1.972 7.8c-1.342 3.36-.725 6.626.69 9.376.348.457.713.898 1.094 1.32.153.188.315.37.483.546l.022.018c1.597 1.672 3.774 2.96 5.637 3.608a16.06 16.06 0 0 0 2.092.564c-.06-.037-.118-.063-.186-.118a7.298 7.298 0 0 1-.65-.55 10.762 10.762 0 0 1-.93-1.004c-.27-.34-.518-.663-.727-.972-.201-.324-.396-.64-.555-.947a7.946 7.946 0 0 1-.396-.869c-.1-.27-.19-.53-.262-.773a6.076 6.076 0 0 1-.143-.634 3.994 3.994 0 0 1-.058-.488 2.31 2.31 0 0 1 .008-.384c.065-.617.347-.885.63-1.084.29-.201.604-.311.904-.377a6.686 6.686 0 0 1 .82-.134c.259-.025.502-.025.719-.012a7.06 7.06 0 0 1 .568.047c.167.02.305.045.415.063.109.023.19.04.237.054l.077.02c-.01-.013-.023-.026-.037-.046a4.944 4.944 0 0 0-.199-.244c-.134-.158-.34-.384-.61-.632a7.345 7.345 0 0 0-1.001-.799c-.397-.262-.86-.511-1.376-.685-.254-.091-.525-.163-.808-.207a3.89 3.89 0 0 0-.87-.038c-.3.026-.601.1-.866.223-.27.122-.498.301-.673.512a1.89 1.89 0 0 0-.35.72 2.268 2.268 0 0 0-.07.743c.012.123.04.243.066.36-.09-.197-.187-.444-.258-.688a3.622 3.622 0 0 1-.127-.704 2.974 2.974 0 0 1 .012-.69c.043-.226.1-.445.206-.649a2.2 2.2 0 0 1 .403-.56 2.67 2.67 0 0 1 .575-.444c.215-.134.452-.243.704-.337.248-.095.514-.17.785-.234a8.82 8.82 0 0 1 1.586-.236c.517-.032 1.023-.009 1.493.047.468.056.9.147 1.268.257a5.956 5.956 0 0 1 1.553.72c.391.264.706.546.949.826.247.283.425.557.552.803.127.251.2.468.245.636.045.166.06.279.06.33v.017c.005.003.007 0 .01-.01.008-.038.032-.13.058-.277.026-.145.053-.347.059-.596a3.994 3.994 0 0 0-.096-1.09 5.177 5.177 0 0 0-.466-1.24 7.094 7.094 0 0 0-.837-1.245 8.215 8.215 0 0 0-1.218-1.166 9.365 9.365 0 0 0-3.281-1.708c-.6-.172-1.224-.29-1.853-.344a7.91 7.91 0 0 0-1.9.066 7.027 7.027 0 0 0-1.743.52c-.532.237-1.01.543-1.403.907a3.916 3.916 0 0 0-.954 1.308 3.648 3.648 0 0 0-.289 1.556 4.53 4.53 0 0 0 .07.688c-.239-.58-.393-1.198-.454-1.809a6.348 6.348 0 0 1 .12-2.024 6.35 6.35 0 0 1 .786-1.958A7.082 7.082 0 0 1 6.94 3.68 8.887 8.887 0 0 1 8.882 2.6c.74-.243 1.555-.388 2.405-.44a12.596 12.596 0 0 1 2.664.131 16.051 16.051 0 0 1 2.814.71c.943.327 1.862.728 2.714 1.186.855.458 1.643.973 2.33 1.526.517.418.962.853 1.34 1.294l.026-.02c-.533-.914-1.296-1.915-2.406-2.895a14.91 14.91 0 0 0-1.69-1.385z"/></svg>
